<?xml version="1.0" encoding="UTF-8"?>
<svg id="Layer_1" data-name="Layer 1" xmlns="http://www.w3.org/2000/svg" viewBox="0 0 127.56 42.52">
  <defs>
    <style>
      .cls-1 {
        fill: #ffffff;
        stroke-width: 0px;
      }
    </style>
  </defs>
  <polygon class="cls-1" points="117.88 32.24 107.34 32.24 107.34 26.64 115.99 28.27 117.38 28.53 117.38 27.12 117.38 26.26 117.38 25.29 116.43 25.11 107.34 23.4 107.34 19.34 117.41 21.34 118.81 21.62 118.81 20.19 118.81 19.29 118.81 18.33 117.87 18.14 105.46 15.63 104.06 15.34 104.06 16.77 104.06 34.26 104.06 35.43 105.23 35.43 117.88 35.43 119.05 35.43 119.05 34.26 119.05 33.41 119.05 32.24 117.88 32.24"/>
  <polygon class="cls-1" points="53.43 21.8 59.88 9.74 61.05 7.55 58.62 8.04 57.39 8.29 56.85 8.4 56.59 8.89 51.53 18.5 47.16 11.16 46.74 10.44 45.92 10.61 44.92 10.81 43.3 11.14 44.15 12.56 49.66 21.81 43.45 32.24 43.33 32.24 31.26 32.24 31.26 26.11 40.32 24.62 41.29 24.45 41.29 23.46 41.29 22.6 41.29 21.23 39.93 21.45 31.26 22.88 31.26 16.92 41.78 14.85 42.72 14.67 42.72 13.71 42.72 12.69 42.72 11.26 41.32 11.54 28.92 14.05 27.98 14.24 27.98 15.2 27.98 34.26 27.98 35.43 29.15 35.43 41.55 35.43 43.33 35.43 43.6 35.43 44.5 35.43 44.74 35.43 45.4 35.43 45.74 34.86 51.56 25.08 57.02 34.84 57.35 35.43 58.04 35.43 59.12 35.43 61.12 35.43 60.14 33.69 53.43 21.8"/>
  <polygon class="cls-1" points="64.94 32.2 64.94 8.37 64.94 7.42 64 7.23 63.54 7.13 63.31 7.09 63.07 7.13 62.59 7.23 61.66 7.42 61.66 8.38 61.66 34.26 61.66 35.43 62.83 35.43 75.5 35.43 76.67 35.43 76.67 34.26 76.67 33.37 76.67 32.2 75.5 32.2 64.94 32.2"/>
  <polygon class="cls-1" points="79.86 10.44 78.46 10.16 78.46 11.58 78.46 34.26 78.46 35.43 79.62 35.43 80.57 35.43 81.74 35.43 81.74 34.26 81.74 11.78 81.74 10.82 80.8 10.63 79.86 10.44"/>
  <polygon class="cls-1" points="99.87 14.49 98.47 14.2 98.47 15.63 98.47 28.84 87.04 12.23 86.78 11.85 86.32 11.75 85.52 11.59 84.12 11.29 84.12 12.73 84.12 34.26 84.12 35.43 85.29 35.43 86.2 35.43 87.37 35.43 87.37 34.26 87.37 18.49 98.7 34.93 99.05 35.43 99.66 35.43 100.55 35.43 101.72 35.43 101.72 34.26 101.72 15.82 101.72 14.86 100.79 14.67 99.87 14.49"/>
  <polygon class="cls-1" points="24.01 15.05 23.39 15.18 23.15 15.76 17.36 30.15 12.13 18.39 11.74 17.53 10.83 17.72 9.94 17.9 8.51 18.19 9.1 19.52 15.89 34.74 16.2 35.43 16.96 35.43 17.87 35.43 18.66 35.43 18.96 34.71 26.42 16.42 27.24 14.4 25.1 14.83 24.01 15.05"/>
</svg>