<?xml version="1.0" encoding="UTF-8"?>
<svg id="Layer_1" data-name="Layer 1" xmlns="http://www.w3.org/2000/svg" width="150" height="140" viewBox="0 0 200 140">
  <defs>
    <style>
      .cls-1 {
        stroke-width: 0px;
      }
    </style>
  </defs>
  <g>
    <ellipse class="cls-1" cx="78" cy="83.53" rx="5" ry="3.19"/>
    <ellipse class="cls-1" cx="122" cy="55.47" rx="5" ry="3.19"/>
    <ellipse class="cls-1" cx="80.5" cy="57.07" rx="5" ry="3.19"/>
    <path class="cls-1" d="m117,103c0-16.57,13.43-30,30-30,6.61,0,12.71,2.14,17.67,5.76l14.52-9.26L100,19,20.8,69.5l79.2,50.5,17.57-11.2c-.37-1.88-.57-3.81-.57-5.8Zm-36.5-52.31c5.51,0,10,2.86,10,6.38s-4.49,6.38-10,6.38-10-2.86-10-6.38,4.49-6.38,10-6.38Zm6.1,29.61c.88.95,1.4,2.05,1.4,3.23,0,3.52-4.49,6.38-10,6.38s-10-2.86-10-6.38,4.49-6.38,10-6.38c1.85,0,3.58.33,5.07.89l30.33-19.34c-.88-.95-1.4-2.05-1.4-3.23,0-3.52,4.49-6.38,10-6.38s10,2.86,10,6.38-4.49,6.38-10,6.38c-1.85,0-3.58-.33-5.07-.89l-30.33,19.34Z"/>
  </g>
  <path class="cls-1" d="m168.44,108.46l-3.94-2.27c.4-2.14.4-4.34,0-6.49l3.94-2.27c.45-.26.66-.79.51-1.29-1.03-3.29-2.77-6.27-5.06-8.74-.35-.38-.92-.47-1.37-.21l-3.94,2.27c-1.65-1.42-3.56-2.52-5.62-3.24v-4.54c0-.52-.36-.97-.87-1.08-3.39-.76-6.87-.72-10.09,0-.51.11-.87.56-.87,1.08v4.55c-2.05.73-3.96,1.83-5.62,3.24l-3.93-2.27c-.45-.26-1.02-.18-1.37.21-2.28,2.47-4.03,5.44-5.06,8.74-.16.5.06,1.04.51,1.29l3.94,2.27c-.4,2.14-.4,4.34,0,6.49l-3.94,2.27c-.45.26-.66.79-.51,1.29,1.03,3.29,2.77,6.27,5.06,8.74.35.38.92.47,1.37.21l3.94-2.27c1.65,1.42,3.56,2.52,5.62,3.24v4.55c0,.52.36.97.87,1.08,3.39.76,6.87.72,10.09,0,.51-.11.87-.56.87-1.08v-4.55c2.05-.73,3.96-1.83,5.62-3.24l3.94,2.27c.45.26,1.02.18,1.37-.21,2.28-2.47,4.03-5.44,5.06-8.74.14-.51-.06-1.04-.52-1.3Zm-21.39,1.88c-4.08,0-7.39-3.32-7.39-7.39s3.32-7.39,7.39-7.39,7.39,3.32,7.39,7.39-3.32,7.39-7.39,7.39Z"/>
</svg>