<?xml version="1.0" encoding="UTF-8"?>
<svg id="Layer_1" data-name="Layer 1" xmlns="http://www.w3.org/2000/svg" width="200" height="140" viewBox="0 0 200 140">
  <defs>
    <style>
      .cls-1 {
        stroke-width: 0px;
      }
    </style>
  </defs>
  <ellipse class="cls-1" cx="78" cy="83.53" rx="5" ry="3.19"/>
  <ellipse class="cls-1" cx="122" cy="55.47" rx="5" ry="3.19"/>
  <path class="cls-1" d="m100,20L21.51,70l78.49,50,78.49-50L100,20Zm22,41.85c-1.85,0-3.58-.33-5.07-.89l-30.33,19.34c.88.95,1.4,2.05,1.4,3.23,0,3.52-4.49,6.38-10,6.38s-10-2.86-10-6.38,4.49-6.38,10-6.38c1.85,0,3.58.33,5.07.89l30.33-19.34c-.88-.95-1.4-2.05-1.4-3.23,0-3.52,4.49-6.38,10-6.38s10,2.86,10,6.38-4.49,6.38-10,6.38Z"/>
</svg>